<?xml version="1.0" encoding="UTF-8"?>
<svg width="128" height="128" viewBox="0 0 128 128" fill="none" xmlns="http://www.w3.org/2000/svg">
    <!-- Shield Base with Depth -->
    <path d="M64 12L24 28V56C24 72 48 92 64 100C80 92 104 72 104 56V28L64 12Z" fill="url(#shieldGradient)" stroke="url(#edgeShadow)" stroke-width="4"/>
    
    <!-- Checkmark with Highlight -->
    <path d="M52 64L44 56L40 60L52 72L88 36L84 32L52 64Z" fill="white"/>
    
    <!-- Subtle Legal Ribbon -->
    <path d="M40 52L48 48L88 60L80 64L40 52Z" fill="white" opacity="0.3"/>
    
    <!-- Embossed Scale Symbol -->
    <path d="M64 56C66.2091 56 68 54.2091 68 52C68 49.7909 66.2091 48 64 48C61.7909 48 60 49.7909 60 52C60 54.2091 61.7909 56 64 56Z" fill="none" stroke="white" stroke-width="2"/>
    <path d="M60 60L56 72" stroke="white" stroke-width="2"/>
    <path d="M68 60L72 72" stroke="white" stroke-width="2"/>
    
    <!-- Glow Effect -->
    <circle cx="64" cy="64" r="56" stroke="white" stroke-width="2" stroke-opacity="0.2" stroke-dasharray="3 3"/>
    
    <defs>
        <!-- Professional Green Gradient -->
        <linearGradient id="shieldGradient" x1="64" y1="12" x2="64" y2="100">
            <stop offset="0%" stop-color="#2E8B57"/>
            <stop offset="60%" stop-color="#3CB371"/>
            <stop offset="100%" stop-color="#228B22"/>
        </linearGradient>
        
        <!-- Edge Definition -->
        <linearGradient id="edgeShadow" x1="64" y1="10" x2="64" y2="100">
            <stop offset="0%" stop-color="#1A5D3A"/>
            <stop offset="100%" stop-color="#0D2E1D"/>
        </linearGradient>
    </defs>
</svg>
