<svg xmlns="http://www.w3.org/2000/svg" width="128" height="128" fill="none" viewBox="0 0 128 128"><path fill="url(#shieldGradient)" stroke="url(#edgeShadow)" stroke-width="4" d="M64 12L24 28V56C24 72 48 92 64 100C80 92 104 72 104 56V28L64 12Z"/><path fill="#fff" d="M40 52L48 48L88 60L80 64L40 52Z" opacity=".3"/><path fill="none" stroke="#fff" stroke-width="2" d="M64 56C66.2091 56 68 54.2091 68 52C68 49.7909 66.2091 48 64 48C61.7909 48 60 49.7909 60 52C60 54.2091 61.7909 56 64 56Z"/><path stroke="#fff" stroke-width="2" d="M60 60L56 72"/><path stroke="#fff" stroke-width="2" d="M68 60L72 72"/><circle cx="64" cy="64" r="56" stroke="#fff" stroke-dasharray="3 3" stroke-opacity=".2" stroke-width="2"/><defs><linearGradient id="shieldGradient" x1="64" x2="64" y1="12" y2="100"><stop offset="0%" stop-color="#2E8B57"/><stop offset="60%" stop-color="#3CB371"/><stop offset="100%" stop-color="#228B22"/></linearGradient><linearGradient id="edgeShadow" x1="64" x2="64" y1="10" y2="100"><stop offset="0%" stop-color="#1A5D3A"/><stop offset="100%" stop-color="#0D2E1D"/></linearGradient></defs></svg>