 <svg version="1.0" xmlns="http://www.w3.org/2000/svg"  width="300.000000pt" height="300.000000pt" viewBox="0 0 300.000000 300.000000"  preserveAspectRatio="xMidYMid meet">  <g transform="translate(0.000000,300.000000) scale(0.100000,-0.100000)" fill="#000000" stroke="none"> <path d="M1290 2885 c-508 -84 -917 -420 -1094 -897 -73 -196 -90 -317 -76 -522 17 -241 50 -378 135 -562 64 -138 148 -257 265 -375 247 -248 516 -374 880 -410 158 -16 249 -13 373 12 271 54 523 193 713 392 202 210 285 368 366 696 29 114 32 141 32 281 0 400 -143 733 -436 1018 -182 176 -405 294 -668 352 -126 28 -370 35 -490 15z m436 -40 c381 -66 713 -288 926 -621 77 -120 145 -292 179 -457 29 -133 31 -389 6 -517 -95 -482 -434 -878 -889 -1038 -275 -97 -617 -98 -892 -3 -246 85 -482 258 -642 470 -117 155 -217 387 -255 591 -21 111 -16 378 9 497 60 281 183 509 381 703 200 198 443 326 706 373 110 20 360 21 471 2z"/> <path d="M1500 2328 l0 -63 329 3 329 3 6 24 c12 45 89 64 126 30 41 -37 31 -109 -18 -127 l-27 -10 3 -127 c1 -69 3 -179 5 -243 l2 -117 -26 24 c-14 14 -29 25 -34 25 -5 0 -38 31 -74 68 -37 37 -86 83 -111 101 l-45 33 36 -34 c35 -31 42 -58 16 -58 -7 0 -18 -9 -25 -21 l-13 -21 -24 22 c-17 16 -31 21 -48 16 -34 -8 -87 -65 -87 -93 0 -22 -12 -28 -50 -25 -34 3 -136 -30 -158 -51 -31 -28 -72 -92 -72 -112 0 -8 -9 -15 -19 -15 -11 0 -23 -4 -26 -10 -3 -5 -1 -10 4 -10 6 0 11 -11 11 -24 0 -13 10 -47 22 -76 14 -35 18 -54 11 -58 -7 -4 20 -36 66 -77 172 -156 481 -438 481 -439 0 0 -111 -1 -247 0 -137 0 -266 -2 -288 -6 -22 -4 91 -8 250 -9 160 -1 299 -4 311 -7 16 -4 24 1 34 25 6 17 25 36 41 43 l28 13 3 114 c2 81 7 116 16 119 9 3 12 -25 12 -117 0 -78 4 -121 10 -121 6 0 22 -11 35 -25 38 -37 35 -95 -7 -130 -40 -34 -81 -28 -120 15 l-28 30 -592 0 -593 0 -15 -33 c-8 -17 -30 -42 -49 -54 -83 -56 -201 0 -218 101 -11 67 55 156 115 156 20 0 20 6 19 149 -1 82 2 153 6 157 19 19 27 -30 27 -163 0 -137 1 -143 23 -154 41 -21 77 -62 83 -96 l6 -33 277 3 276 2 -1 266 -1 267 -29 38 c-16 22 -39 50 -51 64 -13 14 -23 32 -23 40 1 17 55 80 70 80 5 0 10 7 10 15 0 8 6 15 14 15 27 0 36 85 36 334 l0 246 57 -1 c32 -1 70 -5 85 -10 16 -4 28 -4 28 1 0 4 100 7 223 6 188 -1 226 -3 245 -17 13 -10 25 -25 27 -35 2 -11 4 -103 4 -206 1 -266 19 -244 23 27 3 191 1 216 -13 220 -9 3 -24 14 -34 25 -17 19 -32 20 -349 20 l-331 0 3 -264 3 -264 -49 -59 c-27 -32 -63 -73 -81 -92 -35 -37 -38 -28 35 -116 22 -27 53 -67 68 -87 l28 -38 -49 0 c-49 0 -49 0 -103 70 -30 38 -57 70 -60 70 -3 0 -29 -31 -59 -70 l-53 -70 -54 0 c-30 0 -54 -4 -54 -9 0 -4 21 -14 46 -21 41 -12 50 -11 80 5 19 10 43 33 54 51 11 17 26 34 34 37 7 3 35 -16 62 -44 31 -31 57 -49 72 -49 13 0 32 -5 43 -10 18 -10 19 -23 19 -190 0 -98 -3 -185 -6 -193 -4 -13 -28 -16 -127 -16 -67 0 -174 -4 -238 -7 l-117 -6 -18 28 c-10 16 -34 46 -53 67 l-36 38 -5 131 -5 130 45 21 c87 41 123 91 144 197 10 51 13 55 41 57 38 2 75 -5 75 -15 0 -9 -87 -123 -99 -132 -11 -7 -31 -46 -31 -60 0 -23 20 -4 103 95 l83 100 -74 88 c-73 85 -105 110 -81 65 6 -13 32 -44 57 -70 l46 -48 -69 0 -70 1 -25 50 c-13 28 -37 61 -53 73 -15 11 -41 32 -57 46 l-29 25 -4 162 c-2 92 0 166 5 171 11 11 14 65 4 81 -4 6 -21 18 -37 27 -64 33 -106 -21 -67 -85 18 -29 23 -32 26 -17 2 10 -1 23 -7 29 -19 19 -12 46 13 53 14 3 30 3 35 -1 14 -8 14 -38 0 -52 -7 -7 -11 -82 -12 -211 l-2 -200 33 -6 c51 -8 100 -43 129 -93 36 -62 38 -152 4 -206 -72 -117 -222 -137 -315 -43 -46 45 -72 113 -64 166 l5 30 -234 0 c-211 0 -273 -7 -210 -24 12 -3 106 -6 209 -6 l186 0 11 -50 c6 -28 17 -63 25 -79 19 -36 90 -99 131 -117 l32 -13 -2 -73 c-2 -40 -4 -96 -4 -125 -1 -50 -3 -54 -45 -85 -94 -70 -112 -178 -41 -255 25 -27 111 -73 137 -73 34 0 93 30 133 70 22 21 51 39 65 40 71 6 437 -1 448 -9 10 -6 13 -69 13 -297 -1 -174 3 -295 9 -304 6 -10 10 90 10 300 l0 315 317 -3 318 -3 38 -25 c56 -37 89 -40 132 -14 65 40 70 73 21 164 -30 57 -33 73 -35 150 -1 48 -4 93 -7 101 -3 7 2 28 11 45 9 18 14 42 11 54 -3 11 -1 28 4 36 11 19 37 5 105 -56 185 -167 299 -264 304 -259 6 6 -59 70 -139 137 -25 21 -67 58 -95 83 -27 24 -53 45 -57 45 -5 0 -8 6 -8 14 0 8 21 24 47 37 66 32 117 81 133 129 7 22 20 40 27 40 8 0 50 -31 94 -70 43 -38 85 -70 92 -70 6 0 -15 24 -48 52 -123 107 -165 153 -158 176 3 13 -4 37 -20 64 -27 44 -87 116 -87 104 0 -3 -10 0 -23 9 -28 18 -127 26 -144 12 -7 -5 -19 -7 -27 -4 -11 4 -13 36 -12 164 2 87 -1 183 -6 213 l-8 55 40 35 c46 40 47 59 5 121 -43 65 -124 67 -182 5 -22 -24 -24 -24 -237 -24 -118 -1 -230 -4 -248 -7 -30 -6 -39 -1 -96 50 l-62 57 0 -64z m422 -916 c-10 -20 -35 -49 -56 -66 -50 -41 -142 -49 -204 -17 -127 65 -144 240 -32 334 57 48 124 56 203 22 15 -6 17 -1 17 47 0 51 2 55 43 86 l42 33 3 -202 c2 -180 0 -206 -16 -237z m172 406 c7 -11 7 -26 0 -45 -17 -51 -104 -40 -104 14 0 44 80 68 104 31z m90 -77 c16 -18 16 -20 -6 -35 -20 -14 -23 -27 -29 -109 -6 -91 -6 -91 -7 -22 -1 39 -7 87 -13 108 -18 67 15 103 55 58z m-174 -27 c0 -10 13 -14 45 -14 l45 0 0 -190 0 -190 -45 0 -45 0 -2 188 c-2 143 -6 186 -15 185 -8 -2 -13 7 -13 22 0 18 4 23 15 19 8 -4 15 -12 15 -20z m435 -15 c75 -21 135 -110 135 -201 0 -49 -43 -129 -86 -158 -52 -35 -154 -41 -194 -11 -16 11 -30 21 -32 21 -2 0 -2 -35 0 -78 l3 -77 -45 3 -46 4 0 244 0 244 40 0 c27 0 40 -4 40 -14 0 -10 12 -7 47 10 52 27 79 29 138 13z m-465 -340 c0 -36 18 -56 63 -69 56 -15 85 -2 95 43 5 25 8 14 12 -50 5 -74 8 -84 34 -104 19 -15 24 -25 17 -32 -6 -6 -11 -51 -11 -102 l0 -91 -39 -38 c-46 -45 -45 -46 -141 44 -97 91 -224 206 -276 251 -81 70 -83 78 -16 61 80 -20 141 0 202 67 46 50 60 55 60 20z"/> <path d="M1691 1595 c-16 -14 -35 -41 -41 -59 -21 -65 33 -139 101 -139 66 0 109 49 109 123 0 87 -101 132 -169 75z m131 -48 c14 -22 8 -58 -13 -88 -40 -56 -119 -29 -119 41 0 26 31 63 60 72 18 6 62 -9 72 -25z"/> <path d="M2360 1623 c-63 -18 -90 -56 -90 -128 0 -37 5 -51 26 -70 77 -71 194 -17 194 89 0 59 -77 124 -130 109z m61 -54 c43 -22 43 -93 1 -125 -30 -23 -79 -17 -98 11 -44 67 28 151 97 114z"/> <path d="M2202 2298 c-7 -7 -12 -21 -12 -33 0 -45 53 -61 85 -25 15 17 16 24 7 45 -13 27 -58 35 -80 13z"/> <path d="M790 1975 c-1 -44 -2 -95 -1 -114 2 -18 0 -54 -4 -78 -6 -41 -10 -46 -50 -64 -55 -24 -115 -90 -115 -126 0 -25 2 -23 29 19 30 47 101 98 137 98 18 0 19 8 16 132 -3 180 -8 229 -12 133z"/> <path d="M1100 1720 c-11 -7 -1 -10 36 -10 l50 0 49 -66 48 -66 21 28 c39 53 88 104 97 99 13 -8 60 6 53 16 -17 28 -102 -8 -136 -57 -13 -18 -28 -34 -34 -34 -5 0 -23 18 -40 39 -42 57 -102 78 -144 51z"/> <path d="M767 1611 c-75 -49 -82 -140 -16 -195 53 -45 142 -28 174 34 55 107 -60 226 -158 161z m128 -42 c5 -6 1 -9 -10 -10 -12 0 -15 -3 -7 -6 7 -3 17 -16 23 -30 12 -33 -11 -77 -52 -93 -81 -34 -134 75 -68 141 17 17 28 19 62 14 23 -4 46 -11 52 -16z"/> <path d="M753 930 c-89 -54 -44 -200 62 -200 61 0 104 45 105 109 0 36 -6 49 -34 77 -40 40 -83 45 -133 14z m122 -59 c17 -33 12 -55 -18 -88 -26 -30 -52 -29 -82 2 -30 30 -31 54 -4 89 30 38 83 37 104 -3z"/> <path d="M2190 871 c-18 -34 -12 -69 14 -87 55 -35 114 39 70 87 -23 25 -70 25 -84 0z"/> </g> </svg> 
