<?xml version="1.0" encoding="UTF-8"?>
<svg width="128" height="128" viewBox="0 0 128 128" fill="none" xmlns="http://www.w3.org/2000/svg">
    <!-- Background Circle with Premium Gold Gradient -->
    <circle cx="64" cy="64" r="60" fill="url(#premiumGradient)"/>
    
    <!-- Crown Centerpiece with Detailed Design -->
    <path d="M64 32L48 56L32 48L24 80L40 88L64 72L88 88L104 80L96 48L80 56L64 32Z" fill="white" stroke="#D4AF37" stroke-width="3"/>
    
    <!-- Jewel Details -->
    <circle cx="64" cy="48" r="8" fill="#FFD700"/>
    <circle cx="48" cy="64" r="6" fill="#FFD700"/>
    <circle cx="80" cy="64" r="6" fill="#FFD700"/>
    
    <!-- Subtle Shine Effects -->
    <path d="M64 36L68 44L76 46L68 48L64 56L60 48L52 46L60 44L64 36Z" fill="white" opacity="0.8"/>
    
    <!-- Outer Ring for Emphasis -->
    <circle cx="64" cy="64" r="62" stroke="url(#borderGradient)" stroke-width="4" stroke-linecap="round" stroke-dasharray="4 2" opacity="0.8"/>
    
    <!-- Gradients Definition -->
    <defs>
        <!-- Premium Gold Gradient -->
        <linearGradient id="premiumGradient" x1="0%" y1="0%" x2="100%" y2="100%">
            <stop offset="0%" stop-color="#D4AF37"/>
            <stop offset="50%" stop-color="#F5D073"/>
            <stop offset="100%" stop-color="#D4AF37"/>
        </linearGradient>
        
        <!-- Border Gradient -->
        <linearGradient id="borderGradient" x1="0%" y1="0%" x2="100%" y2="100%">
            <stop offset="0%" stop-color="#FFFFFF" stop-opacity="0.8"/>
            <stop offset="100%" stop-color="#D4AF37" stop-opacity="0.6"/>
        </linearGradient>
    </defs>
</svg>
