<svg xmlns="http://www.w3.org/2000/svg" width="128" height="128" fill="none" viewBox="0 0 128 128"><circle cx="64" cy="64" r="60" fill="url(#premiumGradient)"/><path fill="#fff" stroke="#D4AF37" stroke-width="3" d="M64 32L48 56L32 48L24 80L40 88L64 72L88 88L104 80L96 48L80 56L64 32Z"/><circle cx="64" cy="48" r="8" fill="gold"/><circle cx="48" cy="64" r="6" fill="gold"/><circle cx="80" cy="64" r="6" fill="gold"/><path fill="#fff" d="M64 36L68 44L76 46L68 48L64 56L60 48L52 46L60 44L64 36Z" opacity=".8"/><circle cx="64" cy="64" r="62" stroke="url(#borderGradient)" stroke-dasharray="4 2" stroke-linecap="round" stroke-width="4" opacity=".8"/><defs><linearGradient id="premiumGradient" x1="0%" x2="100%" y1="0%" y2="100%"><stop offset="0%" stop-color="#D4AF37"/><stop offset="50%" stop-color="#F5D073"/><stop offset="100%" stop-color="#D4AF37"/></linearGradient><linearGradient id="borderGradient" x1="0%" x2="100%" y1="0%" y2="100%"><stop offset="0%" stop-color="#FFF" stop-opacity=".8"/><stop offset="100%" stop-color="#D4AF37" stop-opacity=".6"/></linearGradient></defs></svg>